<svg width="61" height="37" xmlns="http://www.w3.org/2000/svg"><g id="Page-1" stroke="none" stroke-width="1" fill="none" fill-rule="evenodd"><g id="desktop" transform="translate(-1070 -1188)" fill="#01ACFF" fill-rule="nonzero" stroke="#00AEFF"><g id="features" transform="translate(0 936)"><g id="cards" transform="translate(168 217)"><g id="cards-copy-2" transform="translate(760)"><g id="Group"><g id="noun_885454_cc" transform="translate(143 35)"><path d="M15.074-11A3.077 3.077 0 0012-7.907V44.43a3.077 3.077 0 003.074 3.093h28.379a3.077 3.077 0 003.074-3.093V-7.907A3.077 3.077 0 0043.453-11H15.074zm0 1.427h28.379c.898 0 1.655.762 1.655 1.666v3.568h-31.69v-3.568c0-.904.758-1.666 1.656-1.666zm9.46 1.904a.73.73 0 00-.71.713.73.73 0 00.71.714h9.46a.73.73 0 00.709-.714.73.73 0 00-.71-.713h-9.46zM13.419-2.911h31.69V44.43c0 .904-.758 1.666-1.656 1.666H15.074c-.898 0-1.655-.762-1.655-1.666v-7.375h27.669a.73.73 0 00.71-.713.73.73 0 00-.71-.714h-27.67v-38.54zm15.845 41.395a3.077 3.077 0 00-3.075 3.093 3.077 3.077 0 003.075 3.092 3.077 3.077 0 003.074-3.092 3.077 3.077 0 00-3.074-3.093zm0 1.427c.898 0 1.655.762 1.655 1.666 0 .904-.757 1.665-1.655 1.665-.9 0-1.656-.761-1.656-1.665s.757-1.666 1.656-1.666z" id="icon-phone" transform="rotate(-90 29.264 18.262)"/></g></g></g></g></g></g></g></svg>